<svg id="Capa_1" data-name="Capa 1" xmlns="http://www.w3.org/2000/svg" viewBox="0 0 483.16 357"><title>camera</title><g id="QrS0NG.tif"><path d="M709,459H256c-11.29-4.67-15.2-13.13-15.16-25.23,0.3-83.92.16-167.84,0.15-251.76,0-13.17,7.81-21,21.12-21h122c1-7.86,1.81-15.3,3-22.69,1-6.37,1.52-13,3.75-18.94C394.4,109.83,402.6,105,412,102H552a5.85,5.85,0,0,0,1.25.77c14.5,4.56,21.46,13.55,22.85,28.57C577,141.2,578.61,151,579.93,161h6c37.61,0,75.22.32,112.82-.19,11.76-.16,20.3,3.25,25.23,14.19V444C721,451,716.21,456.21,709,459ZM605.49,309.64c0-67-54.9-122.21-121.09-123-67.78-.77-124.43,54.07-124.55,121.83-0.12,68.84,54.86,124.22,122.94,124C550.49,432.25,605.45,377.23,605.49,309.64Zm-9.27-96H700.59V183.26H596.22v30.38Z" transform="translate(-240.84 -102)"/><path d="M558.16,309.54c-0.18,41.55-34.33,75.62-75.46,75.28a75.46,75.46,0,0,1-75.21-76c0.13-42,34-75,76.67-74.84C524.88,234.18,558.34,268.34,558.16,309.54Z" transform="translate(-240.84 -102)"/></g></svg>