<svg xmlns="http://www.w3.org/2000/svg" viewBox="0 0 100 71.8" enable-background="new 0 0 100 71.8"><path d="M63.7 40.1c0-7.6-6.1-13.7-13.7-13.7s-13.7 6.1-13.7 13.7 6.1 13.7 13.7 13.7 13.7-6.2 13.7-13.7zm7.8.2c0 11.8-9.6 21.4-21.5 21.4-11.8 0-21.4-9.6-21.4-21.4 0-3.3.8-6.6 2.3-9.5h-30.9v32.6c.1 4.6 3.8 8.3 8.4 8.4h83.3c4.6-.1 8.3-3.8 8.3-8.4v-32.6h-30.8c1.5 2.9 2.3 6.2 2.3 9.5zm20.5-31.5h-83.6c-4.5-.2-8.3 3.4-8.4 7.9v11.1h32.2c3.8-5 10.4-9.5 17.8-9.5s14 4.5 17.9 9.5h32.1v-11c0-4.4-3.6-8-8-8zm-25.5-1.7l-4.2-6.8c-.1-.2-.3-.3-.6-.3h-23c-.2 0-.4.1-.6.3-1.6 2.3-3.1 4.6-4.8 7h33.2c.1-.1.1-.2 0-.2zm-12.1-1.3h-8.4v-4.1h8.4v4.1zm-31.7-2.4c-.1-.2-.3-.3-.5-.3h-9c-.2 0-.4.1-.5.3-.5 1.2-1 2.5-1.6 3.8h13.1c-.5-1.4-1-2.6-1.5-3.8z"/></svg>