<svg xmlns="http://www.w3.org/2000/svg" viewBox="0 0 100 100" enable-background="new 0 0 100 100"><path d="M57.8 28.5c-1.4 0-2.5 1.2-2.5 2.8 0 3.4-2.4 6.1-5.3 6.1s-5.3-2.7-5.3-6.1c0-1.5-1.1-2.8-2.5-2.8s-2.5 1.2-2.5 2.8c-.1 3.2 1.1 6.4 3.2 8.6 1.9 2.1 4.4 3.2 7.1 3.2 5.7 0 10.3-5.3 10.3-11.9-.1-1.6-1.2-2.7-2.5-2.7zm-13.9-6.1c2 0 3.7-1.9 3.7-4.2s-1.7-4.2-3.7-4.2-3.7 1.9-3.7 4.2 1.7 4.2 3.7 4.2zm12.5 0c2 0 3.7-1.9 3.7-4.2s-1.7-4.2-3.7-4.2-3.7 1.9-3.7 4.2 1.7 4.2 3.7 4.2zm18.4 4c0-14.6-11.1-26.4-24.8-26.4s-24.8 11.9-24.8 26.4 11.1 26.4 24.8 26.4 24.8-11.8 24.8-26.4zm-24.8 20.8c-10.7 0-19.4-9.3-19.4-20.6 0-11.4 8.7-20.7 19.4-20.7s19.4 9.3 19.4 20.6c0 11.4-8.7 20.7-19.4 20.7zm-17.4 28.4c-1.4 0-2.5 1.2-2.5 2.8 0 3.4-2.4 6.1-5.3 6.1s-5.3-2.8-5.3-6.1c0-1.5-1.1-2.8-2.5-2.8s-2.5 1.3-2.5 2.8c-.1 3.2 1.1 6.4 3.2 8.6 1.9 2.1 4.4 3.2 7.1 3.2 5.7 0 10.3-5.3 10.3-11.9 0-1.5-1.1-2.7-2.5-2.7zm-13.9-6c2 0 3.7-1.9 3.7-4.2 0-2.3-1.7-4.2-3.7-4.2s-3.7 1.9-3.7 4.2c0 2.3 1.7 4.2 3.7 4.2zm12.6 0c2 0 3.7-1.9 3.7-4.2 0-2.3-1.7-4.2-3.7-4.2s-3.7 1.9-3.7 4.2c0 2.3 1.7 4.2 3.7 4.2zm51.7 6c-1.4 0-2.5 1.2-2.5 2.8 0 3.4-2.4 6.1-5.3 6.1s-5.3-2.7-5.3-6.1c0-1.5-1.1-2.8-2.5-2.8s-2.5 1.2-2.5 2.8c-.1 3.2 1.1 6.4 3.2 8.6 1.9 2.1 4.4 3.2 7.1 3.2 5.7 0 10.3-5.3 10.3-11.9-.1-1.5-1.1-2.7-2.5-2.7zm-58.2-28.4c-13.7 0-24.8 11.8-24.8 26.4 0 14.6 11.1 26.4 24.8 26.4s24.8-11.9 24.8-26.4-11.1-26.4-24.8-26.4zm0 47c-10.7 0-19.4-9.3-19.4-20.6s8.7-20.6 19.4-20.6 19.4 9.2 19.4 20.6c0 11.4-8.7 20.6-19.4 20.6zm44.3-24.6c2 0 3.7-1.9 3.7-4.2 0-2.3-1.7-4.2-3.7-4.2s-3.7 1.9-3.7 4.2c0 2.3 1.7 4.2 3.7 4.2zm12.5 0c2 0 3.7-1.9 3.7-4.2 0-2.3-1.7-4.2-3.7-4.2s-3.7 1.9-3.7 4.2c0 2.3 1.7 4.2 3.7 4.2zm-6.4-22.4c-13.7 0-24.8 11.9-24.8 26.4s11.1 26.4 24.8 26.4 24.8-11.9 24.8-26.4-11.1-26.4-24.8-26.4zm0 47c-10.7 0-19.4-9.3-19.4-20.6s8.7-20.6 19.4-20.6 19.4 9.2 19.4 20.6c0 11.4-8.7 20.6-19.4 20.6z"/></svg>