<svg xmlns="http://www.w3.org/2000/svg" viewBox="0 0 100 120" enable-background="new 0 0 100 120"><path d="M25 32.2v73.6h1c2.7 0 5.4-.3 8.1-.2.8 0 1-.3 1-1.1v-71.2c0-.4 0-.8-.1-1.1h-10zm74.6-8c-1.4-6.7-7.2-11.6-14.1-11.8-2.8-.1-5.5 0-8.2 0h-1c0-1-.1-2-.2-3-.6-4.6-4.2-8.3-8.9-9.1-1.4-.2-2.7-.3-4-.3h-26.4c-1.3 0-2.6.1-3.9.4-4.7.7-8.3 4.4-8.9 9.1-.1 1-.2 2-.2 3h-1c-2.8 0-5.5-.1-8.2 0-6.9.1-12.8 5-14.2 11.7-.2 1-.3 2-.4 3h5v1.2c0 26.7 0 49.6.1 76.4 0 .8 0 1.6.1 2.3 1 7.5 7.6 13.1 15.3 12.9h59c7.7.2 14.3-5.3 15.2-12.9.1-.8.2-1.5.2-2.3.1-26.6.1-49.7.1-76.4v-1.2h5c-.2-1-.2-2.1-.4-3zm-68.2-13.8c.2-1.6 1.6-2.8 3.2-2.8.7-.1 1.5-.2 2.2-.2h26.4c.7 0 1.5.1 2.2.2 1.6.1 2.9 1.3 3.2 2.8.1.7.1 1.3 0 2h-37.2c-.1-.7 0-1.3 0-2zm53.5 94.8c0 .9-.3 1.7-.7 2.5-1 1.9-2.8 2.5-4.9 2.5h-58.6c-2.1 0-3.8-.6-4.9-2.5-.4-.8-.7-1.6-.7-2.5v-77.1c0-.7.2-.9.9-.9h68c.4-.1.8.1.9.5v77.5zm-20-72.1v71.2c0 .8.2 1.2 1 1.2l8.1.2h1v-73.5h-10c-.1.3-.1.6-.1.9zm-19.9 72.7h10v-73.6h-10v73.6z"/></svg>