<svg xmlns="http://www.w3.org/2000/svg" viewBox="0 0 100.1 120" enable-background="new 0 0 100.1 120"><path d="M72 77.6l-7.7-.4c-.5-2.4-1.4-4.7-2.5-6.8l5.9-5.2c1.5-1.4 1.6-3.7.3-5.2l-4-4.3c-1.4-1.5-3.8-1.6-5.3-.3l-5.9 5.2c-2.1-1.5-4.4-2.6-6.9-3.2l.4-7.8c.2-1.9-1.2-3.7-3.1-3.9h-.2l-5.9-.3c-2.1-.1-4.2 1.5-4.3 3.5l-.4 7.7c-2.4.5-4.7 1.3-6.9 2.4l-5.2-5.8c-1.4-1.5-3.7-1.6-5.3-.3l-4.4 4c-1.5 1.4-1.7 3.7-.3 5.3l5.2 5.8c-1.5 2-2.6 4.4-3.3 6.8l-7.9-.4c-1.9-.2-3.7 1.2-3.9 3.1v.2l-.4 5.9c-.1 2.1 1.5 4.1 3.6 4.2l7.7.4c.5 2.4 1.4 4.7 2.5 6.8l-5.8 5.2c-1.5 1.4-1.6 3.7-.3 5.2l4 4.3c1.4 1.5 3.8 1.6 5.3.3l5.9-5.2c2.1 1.5 4.4 2.6 6.9 3.2l-.4 7.8c-.2 1.9 1.2 3.7 3.1 3.9h.2l5.9.3c2.1.1 4.2-1.5 4.3-3.5l.4-7.7c2.4-.5 4.7-1.3 6.9-2.4l5.2 5.8c1.4 1.5 3.7 1.6 5.3.3l4.4-4c1.5-1.4 1.7-3.7.3-5.3l-5.2-5.8c1.5-2 2.6-4.4 3.3-6.8l7.9.4c1.9.2 3.7-1.2 3.9-3.1v-.2l.3-5.9c0-2.1-1.5-4.1-3.6-4.2zm-34.8 17.1c-6.7-.3-11.9-6-11.6-12.6.3-6.6 6-11.8 12.8-11.5 6.7.3 11.9 6 11.6 12.6-.4 6.7-6.1 11.8-12.8 11.5zm60.1-72.1h-5.7c-.5-1.7-1.2-3.4-2.1-5l4.1-4c1.1-1.1 1.1-2.8 0-3.9l-3.1-3.1c-1.1-1.1-2.9-1.1-3.9 0l-4.2 4c-1.6-1-3.3-1.8-5.2-2.2v-5.6c.1-1.4-1-2.7-2.4-2.8h-4.6c-1.5 0-3 1.2-3 2.8v5.7c-1.8.5-3.4 1.2-5 2l-4.1-4.1c-1.1-1.1-2.8-1.1-3.9 0l-3.1 3.1c-1.1 1.1-1.1 2.8 0 3.9l4.1 4.1c-1 1.6-1.8 3.3-2.2 5.1h-5.8c-1.4-.1-2.7 1-2.8 2.4v4.6c0 1.5 1.2 3 2.8 3h5.7c.5 1.7 1.2 3.4 2.1 5l-4.1 4c-1.1 1.1-1.1 2.8 0 3.9l3.1 3.1c1.1 1.1 2.9 1.1 3.9 0l4.2-4c1.6 1 3.3 1.8 5.2 2.2v5.8c-.1 1.4 1 2.7 2.4 2.8h4.6c1.5 0 3-1.2 3-2.8v-5.7c1.8-.5 3.4-1.2 5-2l4.1 4.1c1.1 1.1 2.8 1.1 3.9 0l3.1-3.1c1.1-1.1 1.1-2.8 0-3.9l-4.1-4.1c1-1.6 1.8-3.3 2.2-5.1h5.8c1.4.1 2.7-1 2.8-2.4v-4.6c-.1-1.7-1.3-3.2-2.8-3.2zm-25.1 13.9c-5 0-9-4-9-8.9s4-8.9 9-8.9 9 4 9 8.9-4 8.9-9 8.9z"/></svg>