<?xml version="1.0" encoding="utf-8"?>
<!-- Generator: Adobe Illustrator 19.2.1, SVG Export Plug-In . SVG Version: 6.00 Build 0)  -->
<svg version="1.1" id="Capa_1" xmlns="http://www.w3.org/2000/svg" xmlns:xlink="http://www.w3.org/1999/xlink" x="0px" y="0px"
	 viewBox="0 0 100.1 120" style="enable-background:new 0 0 100.1 120;" xml:space="preserve">
<style type="text/css">
	.st0{fill:#643200;}
</style>
<path class="st0" d="M72,77.6l-7.7-0.4c-0.5-2.4-1.4-4.7-2.5-6.8l5.9-5.2c1.5-1.4,1.6-3.7,0.3-5.2l-4-4.3c-1.4-1.5-3.8-1.6-5.3-0.3
	l-5.9,5.2c-2.1-1.5-4.4-2.6-6.9-3.2l0.4-7.8c0.2-1.9-1.2-3.7-3.1-3.9H43l-5.9-0.3c-2.1-0.1-4.2,1.5-4.3,3.5l-0.4,7.7
	c-2.4,0.5-4.7,1.3-6.9,2.4l-5.2-5.8c-1.4-1.5-3.7-1.6-5.3-0.3l-4.4,4c-1.5,1.4-1.7,3.7-0.3,5.3l5.2,5.8c-1.5,2-2.6,4.4-3.3,6.8
	l-7.9-0.4c-1.9-0.2-3.7,1.2-3.9,3.1v0.2L0,83.6c-0.1,2.1,1.5,4.1,3.6,4.2l7.7,0.4c0.5,2.4,1.4,4.7,2.5,6.8L8,100.2
	c-1.5,1.4-1.6,3.7-0.3,5.2l4,4.3c1.4,1.5,3.8,1.6,5.3,0.3l5.9-5.2c2.1,1.5,4.4,2.6,6.9,3.2l-0.4,7.8c-0.2,1.9,1.2,3.7,3.1,3.9h0.2
	l5.9,0.3c2.1,0.1,4.2-1.5,4.3-3.5l0.4-7.7c2.4-0.5,4.7-1.3,6.9-2.4l5.2,5.8c1.4,1.5,3.7,1.6,5.3,0.3l4.4-4c1.5-1.4,1.7-3.7,0.3-5.3
	l-5.2-5.8c1.5-2,2.6-4.4,3.3-6.8l7.9,0.4c1.9,0.2,3.7-1.2,3.9-3.1v-0.2l0.3-5.9C75.6,79.7,74.1,77.7,72,77.6L72,77.6z M37.2,94.7
	c-6.7-0.3-11.9-6-11.6-12.6s6-11.8,12.8-11.5c6.7,0.3,11.9,6,11.6,12.6C49.6,89.9,43.9,95,37.2,94.7z M97.3,22.6h-5.7
	c-0.5-1.7-1.2-3.4-2.1-5l4.1-4c1.1-1.1,1.1-2.8,0-3.9l-3.1-3.1c-1.1-1.1-2.9-1.1-3.9,0l-4.2,4c-1.6-1-3.3-1.8-5.2-2.2V2.8
	c0.1-1.4-1-2.7-2.4-2.8h-4.6c-1.5,0-3,1.2-3,2.8v5.7c-1.8,0.5-3.4,1.2-5,2l-4.1-4.1c-1.1-1.1-2.8-1.1-3.9,0l-3.1,3.1
	c-1.1,1.1-1.1,2.8,0,3.9l4.1,4.1c-1,1.6-1.8,3.3-2.2,5.1h-5.8c-1.4-0.1-2.7,1-2.8,2.4v4.6c0,1.5,1.2,3,2.8,3h5.7
	c0.5,1.7,1.2,3.4,2.1,5l-4.1,4c-1.1,1.1-1.1,2.8,0,3.9l3.1,3.1c1.1,1.1,2.9,1.1,3.9,0l4.2-4c1.6,1,3.3,1.8,5.2,2.2v5.8
	c-0.1,1.4,1,2.7,2.4,2.8h4.6c1.5,0,3-1.2,3-2.8v-5.7c1.8-0.5,3.4-1.2,5-2l4.1,4.1c1.1,1.1,2.8,1.1,3.9,0l3.1-3.1
	c1.1-1.1,1.1-2.8,0-3.9l-4.1-4.1c1-1.6,1.8-3.3,2.2-5.1h5.8c1.4,0.1,2.7-1,2.8-2.4v-4.6C100,24.1,98.8,22.6,97.3,22.6z M72.2,36.5
	c-5,0-9-4-9-8.9s4-8.9,9-8.9s9,4,9,8.9S77.2,36.5,72.2,36.5z"/>
</svg>
