<svg xmlns="http://www.w3.org/2000/svg" viewBox="0 0 100 100"><path d="M50 0a50 50 0 1 0 50 50 50 50 0 0 0-50-50zm-.72 78.11c-.51 1.11-.95 2.1-1.35 3a6 6 0 0 1-1.11-.47c-10.82-5.75-21.12-12.23-26.74-23.82-3.52-7.28-4.71-14.82-1.7-22.52 3.62-9.23 10.12-11.93 19.48-8.3a34.31 34.31 0 0 1 10.32 6.1c1.26 2.12 2.62 4.38 4.21 7l2.74 4.41 1.26 2c-1.3.94-2.61 1.89-3.93 2.86-1.61 1.17-3.21 2.36-4.8 3.56l-4.13 3.08 3.11 3c1.51 1.45 3 2.9 4.55 4.33 1.23 1.16 2.53 2.37 3.95 3.68l-1.44 2.78-.29.59c-.66 1.35-1.32 2.69-2 4.05l-.68 1.45c-.47 1.11-.97 2.11-1.45 3.22zm30.82-21.29c-5.62 11.59-15.77 18.07-26.57 23.85a4.76 4.76 0 0 1-2.15.82v.08h-.49c.43-.61.51-1.26 1-2 .68-1 1.33-2 2-3l.88-1.33c.83-1.25 1.64-2.51 2.45-3.77l.34-.47q1.38-2.17 2.74-4.35l1-1.54-1.3-1.45c-1.79-2-3.4-3.69-4.9-5.28q-1.29-1.38-2.6-2.74 1.76-1.24 3.5-2.5c2.12-1.52 4.29-3.11 6.2-4.51l2.3-1.69-4.5-6.67-2.88-4.27c-1.32-2-2.5-3.68-3.62-5.28a34.49 34.49 0 0 1 8.64-4.72c9.36-3.6 15.91-.9 19.48 8.33 3.01 7.67 2 15.21-1.52 22.49z"/></svg>