<?xml version="1.0" encoding="utf-8"?>
<!-- Generator: Adobe Illustrator 19.2.1, SVG Export Plug-In . SVG Version: 6.00 Build 0)  -->
<svg version="1.1" id="Capa_1" xmlns="http://www.w3.org/2000/svg" xmlns:xlink="http://www.w3.org/1999/xlink" x="0px" y="0px"
	 viewBox="0 0 100 100" style="enable-background:new 0 0 100 100;" xml:space="preserve">
<style type="text/css">
	.st0{fill:#9B009B;}
	.st1{opacity:0.5;fill:#663300;}
</style>
<path class="st0" d="M50,0C22.4,0,0,22.4,0,50s22.4,50,50,50s50-22.4,50-50S77.6,0,50,0z M49.3,78.1c-0.5,1.1-1,2.1-1.3,3
	c-0.4-0.1-0.8-0.3-1.1-0.5C36,74.9,25.7,68.4,20.1,56.8c-3.5-7.3-4.7-14.8-1.7-22.5C22,25.1,28.5,22.4,37.9,26
	c3.8,1.4,7.3,3.5,10.3,6.1c1.3,2.1,2.6,4.4,4.2,7l2.7,4.4l1.3,2c-1.3,0.9-2.6,1.9-3.9,2.9c-1.6,1.2-3.2,2.4-4.8,3.6l-4.2,3l3.1,3
	c1.5,1.5,3,2.9,4.5,4.3c1.2,1.2,2.5,2.4,4,3.7l-1.4,2.8l-0.3,0.6c-0.7,1.3-1.3,2.7-2,4.1l-0.7,1.4C50.3,76,49.8,77,49.3,78.1z
	 M80.1,56.8c-5.6,11.6-15.8,18.1-26.6,23.8c-0.6,0.4-1.4,0.7-2.2,0.8v0.1h-0.5c0.4-0.6,0.5-1.3,1-2c0.7-1,1.3-2,2-3l0.9-1.3
	c0.8-1.2,1.6-2.5,2.5-3.8l0.3-0.5c0.9-1.4,1.8-2.9,2.7-4.3l1-1.5L60,63.7c-1.8-2-3.4-3.7-4.9-5.3c-0.9-0.9-1.7-1.8-2.6-2.7
	c1.2-0.8,2.3-1.7,3.5-2.5c2.1-1.5,4.3-3.1,6.2-4.5l2.3-1.7L60,40.3L57.1,36c-1.3-2-2.5-3.7-3.6-5.3c2.6-2,5.5-3.6,8.6-4.7
	c9.4-3.6,15.9-0.9,19.5,8.3C84.6,42,83.6,49.5,80.1,56.8z"/>
<path class="st1" d="M50,0C22.4,0,0,22.4,0,50s22.4,50,50,50s50-22.4,50-50S77.6,0,50,0z M49.3,78.1c-0.5,1.1-1,2.1-1.3,3
	c-0.4-0.1-0.8-0.3-1.1-0.5C36,74.9,25.7,68.4,20.1,56.8c-3.5-7.3-4.7-14.8-1.7-22.5C22,25.1,28.5,22.4,37.9,26
	c3.8,1.4,7.3,3.5,10.3,6.1c1.3,2.1,2.6,4.4,4.2,7l2.7,4.4l1.3,2c-1.3,0.9-2.6,1.9-3.9,2.9c-1.6,1.2-3.2,2.4-4.8,3.6l-4.2,3l3.1,3
	c1.5,1.5,3,2.9,4.5,4.3c1.2,1.2,2.5,2.4,4,3.7l-1.4,2.8l-0.3,0.6c-0.7,1.3-1.3,2.7-2,4.1l-0.7,1.4C50.3,76,49.8,77,49.3,78.1z
	 M80.1,56.8c-5.6,11.6-15.8,18.1-26.6,23.8c-0.6,0.4-1.4,0.7-2.2,0.8v0.1h-0.5c0.4-0.6,0.5-1.3,1-2c0.7-1,1.3-2,2-3l0.9-1.3
	c0.8-1.2,1.6-2.5,2.5-3.8l0.3-0.5c0.9-1.4,1.8-2.9,2.7-4.3l1-1.5L60,63.7c-1.8-2-3.4-3.7-4.9-5.3c-0.9-0.9-1.7-1.8-2.6-2.7
	c1.2-0.8,2.3-1.7,3.5-2.5c2.1-1.5,4.3-3.1,6.2-4.5l2.3-1.7L60,40.3L57.1,36c-1.3-2-2.5-3.7-3.6-5.3c2.6-2,5.5-3.6,8.6-4.7
	c9.4-3.6,15.9-0.9,19.5,8.3C84.6,42,83.6,49.5,80.1,56.8z"/>
</svg>
