<svg xmlns="http://www.w3.org/2000/svg" viewBox="0 0 100 100" enable-background="new 0 0 100 100"><path d="M50 0c-27.6 0-50 22.4-50 50s22.4 50 50 50 50-22.4 50-50-22.4-50-50-50zm23 72.1c-.2 3.8-3.3 6.9-7.1 6.9h-31.7c-3.9 0-7-3.1-7.2-6.9v-42.1h8.5v-.5c0-8.3 6.5-14 14.4-14s14.4 5.7 14.4 14v.5h8.7v42.1zm-21.1-21.9l-5.1-10.3c-.7-1.3-1.8-2.2-3.1-2.7l-5.2-1.8c-.7-.2-1.4.1-1.7.7l-2 4.9c-.5 1.3-.4 2.8.2 4l5.2 10.3c.7 1.2 2.2 1.7 3.5 1.2l7-3c1.2-.5 1.8-1.8 1.3-3-.1-.2-.1-.3-.1-.3zm-11.4-8.8s-.1 0-.1.1c-1 .5-2.2.1-2.8-.9-.5-.9-.1-2.1.9-2.5 0 0 .1 0 .1-.1 1-.5 2.2-.1 2.8.9.4.9.1 2-.9 2.5zm10.2-21.2h-.8c-5.2 0-9.4 3.5-9.4 9.3v.5h18.8v-.5c.2-4.9-3.6-9.1-8.6-9.3z"/></svg>