<?xml version="1.0" encoding="utf-8"?>
<!-- Generator: Adobe Illustrator 19.2.1, SVG Export Plug-In . SVG Version: 6.00 Build 0)  -->
<svg version="1.1" id="Capa_1" xmlns="http://www.w3.org/2000/svg" xmlns:xlink="http://www.w3.org/1999/xlink" x="0px" y="0px"
	 viewBox="0 0 100 100" style="enable-background:new 0 0 100 100;" xml:space="preserve">
<style type="text/css">
	.st0{fill:#329B32;}
</style>
<path class="st0" d="M50,0C22.4,0,0,22.4,0,50s22.4,50,50,50s50-22.4,50-50S77.6,0,50,0z M73,72.1c-0.2,3.8-3.3,6.9-7.1,6.9H34.2
	c-3.9,0-7-3.1-7.2-6.9V30h8.5v-0.5c0-8.3,6.5-14,14.4-14s14.4,5.7,14.4,14V30H73V72.1z M51.9,50.2l-5.1-10.3
	c-0.7-1.3-1.8-2.2-3.1-2.7l-5.2-1.8c-0.7-0.2-1.4,0.1-1.7,0.7l-2,4.9c-0.5,1.3-0.4,2.8,0.2,4l5.2,10.3c0.7,1.2,2.2,1.7,3.5,1.2l7-3
	c1.2-0.5,1.8-1.8,1.3-3C51.9,50.3,51.9,50.2,51.9,50.2z M40.5,41.4C40.5,41.4,40.4,41.4,40.5,41.4c-1.1,0.6-2.3,0.2-2.9-0.8
	c-0.5-0.9-0.1-2.1,0.9-2.5c0,0,0.1,0,0.1-0.1c1-0.5,2.2-0.1,2.8,0.9C41.8,39.8,41.5,40.9,40.5,41.4z M50.7,20.2h-0.8
	c-5.2,0-9.4,3.5-9.4,9.3V30h18.8v-0.5C59.5,24.6,55.7,20.4,50.7,20.2z"/>
</svg>
