<svg id="Capa_1" data-name="Capa 1" xmlns="http://www.w3.org/2000/svg" viewBox="0 0 72.7 62.29"><title>hearth</title><path d="M342.81,266.29a38.62,38.62,0,0,1,16.29-9.45c9.87-2.84,15.78,2.38,18.2,10.06,3.53,11.21,1.63,22-5.82,31a71.26,71.26,0,0,1-25.29,19.47,7.62,7.62,0,0,1-7.15-.21c-11.77-6.3-22.88-13.36-29-26-3.84-7.93-5.16-16.1-1.88-24.55,3.9-10.06,11-13,21.2-9.08A36.92,36.92,0,0,1,342.81,266.29Zm-16.57,29.37c-4.36-6.88-7.82-14.08-9.08-22.77C313.63,280.93,317.93,291.38,326.24,295.66Zm28,6.3,0.81,0.79c1.94-1.61,4-3.1,5.77-4.87a8.4,8.4,0,0,0,1.52-3.28,1.34,1.34,0,0,0-.57-1.18,1.39,1.39,0,0,0-1.25.41C358.41,296.5,356.35,299.24,354.26,302Z" transform="translate(-306.32 -255.86)"/></svg>