<svg xmlns="http://www.w3.org/2000/svg" viewBox="0 0 100 100" enable-background="new 0 0 100 100"><path d="M50.2 36.1c-7-.1-12.8 5.6-12.9 12.7v.3c-.1 7.4 5.5 13.3 12.5 13.4 7 0 12.8-5.7 12.8-12.8v-.3c0-7.3-5.5-13.2-12.4-13.3zm40.7-36.1h-81.5c-4.7 0-6.9 1.4-9.4 7.1v84c0 4.9 3.8 8.9 9.4 8.9h81.5c4.8 0 6.6-3.1 9.1-8.8v-84c0-5-3.5-7.2-9.1-7.2zm-1.9 70.2c.1 10.2-8.1 18.7-18.3 18.8h-39.3c-10.5 0-20.4-8-20.4-18.8v-40c0-10.7 9.9-20.2 20.4-20.2h38.8c10.4 0 18.8 9.5 18.8 20.2v40zm-19.9-53.7h-37.2c-7.2.1-13 6.1-12.9 13.4v38.7c-.1 7.3 5.7 13.3 12.9 13.4h37.2c7.2-.1 13-6.1 12.9-13.4v-38.7c.1-7.3-5.6-13.3-12.9-13.4zm-19.3 52.9c-10.9-.1-19.5-9.1-19.5-20.3 0-11.2 8.7-20.4 19.6-20.4 10.9 0 19.6 9.1 19.6 20.4 0 11.3-8.8 20.4-19.7 20.3zm25-41.4c.1 2.5-1.9 4.6-4.5 4.7-2.6-.1-4.6-2.2-4.7-4.8 0-2.6 2-4.7 4.6-4.7 2.5 0 4.5 1.9 4.6 4.5v.3z"/></svg>