<svg xmlns="http://www.w3.org/2000/svg" viewBox="0 0 100 100" enable-background="new 0 0 100 100"><path d="M50.2 36.6c-7-.1-12.8 5.6-12.9 12.7v.3c-.1 7.4 5.5 13.3 12.5 13.4 7 0 12.8-5.7 12.8-12.8v-.3c0-7.3-5.5-13.2-12.4-13.3zm41.3-36.6h-83c-4.8 0-7.6 2.8-8.5 8.5v83c0 4.8 2.8 7.7 8.5 8.5h83c4.8 0 7.7-2.8 8.5-8.5v-83c0-4.8-2.8-7.6-8.5-8.5zm-2.5 70.7c.1 10.2-8.1 18.7-18.3 18.8h-39.3c-10.5 0-20.4-8-20.4-18.8v-40c0-10.7 9.9-20.2 20.4-20.2h38.8c10.4 0 18.8 9.5 18.8 20.2v40zm-19.9-53.7h-37.2c-7.2.1-13 6.1-12.9 13.4v38.7c-.1 7.3 5.7 13.3 12.9 13.4h37.2c7.2-.1 13-6.1 12.9-13.4v-38.7c.1-7.3-5.6-13.3-12.9-13.4zm-19.3 52.9c-10.9-.1-19.5-9.1-19.5-20.3 0-11.2 8.7-20.4 19.6-20.4 10.9 0 19.6 9.1 19.6 20.4s-8.8 20.4-19.7 20.3zm25-41.4c.1 2.5-1.9 4.6-4.5 4.7-2.6-.1-4.6-2.2-4.7-4.8 0-2.6 2-4.7 4.6-4.7 2.5 0 4.5 1.9 4.6 4.5v.3z"/></svg>