<?xml version="1.0" encoding="utf-8"?>
<!-- Generator: Adobe Illustrator 19.2.1, SVG Export Plug-In . SVG Version: 6.00 Build 0)  -->
<svg version="1.1" id="Capa_1" xmlns="http://www.w3.org/2000/svg" xmlns:xlink="http://www.w3.org/1999/xlink" x="0px" y="0px"
	 viewBox="0 0 100 100" style="enable-background:new 0 0 100 100;" xml:space="preserve">
<style type="text/css">
	.st0{fill:#FF3333;}
	.st1{opacity:0.4;fill:#663300;}
</style>
<path class="st0" d="M50,0C22.4,0,0,22.4,0,50s22.4,50,50,50s50-22.4,50-50S77.6,0,50,0z M80.1,56.8c-5.6,11.6-15.8,18.1-26.5,23.8
	c-0.8,0.4-2.1,0.7-2.1,0.8v0.1h-1v-0.1c-1.1,0-2.1-0.2-3-0.8c-10.8-5.8-21.7-12.2-27.3-23.8c-3.5-7.3-4.7-14.8-1.7-22.5
	C22.1,25.1,28.6,22.4,38,26c4.6,1.7,8.7,4.3,12.2,7.8c3.4-3.4,7.6-6.1,12.1-7.8c9.3-3.6,15.9-0.9,19.5,8.3
	C84.6,42.1,83.6,49.5,80.1,56.8z"/>
<path class="st1" d="M50,0C22.4,0,0,22.4,0,50s22.4,50,50,50s50-22.4,50-50S77.6,0,50,0z M80.1,56.8c-5.6,11.6-15.8,18.1-26.5,23.8
	c-0.8,0.4-2.1,0.7-2.1,0.8v0.1h-1v-0.1c-1.1,0-2.1-0.2-3-0.8c-10.8-5.8-21.7-12.2-27.3-23.8c-3.5-7.3-4.7-14.8-1.7-22.5
	C22.1,25.1,28.6,22.4,38,26c4.6,1.7,8.7,4.3,12.2,7.8c3.4-3.4,7.6-6.1,12.1-7.8c9.3-3.6,15.9-0.9,19.5,8.3
	C84.6,42.1,83.6,49.5,80.1,56.8z"/>
</svg>
