<svg xmlns="http://www.w3.org/2000/svg" viewBox="0 0 100 76.3"> <path d="M50,0C22.4,0,0,17.1,0,38.2c0,21,22.4,38.2,50,38.2s50-17.1,50-38.2C100,17.1,77.6,0,50,0z M50,70 C25.9,70,6.3,55.7,6.3,38.2C6.3,20.6,25.9,6.3,50,6.3s43.7,14.3,43.7,31.8C93.7,55.7,74.1,70,50,70z"/> <path id="lineColor" d="M51.8,19.2c-0.5-1-1.7-1.3-2.7-0.8c-0.3,0.2-0.6,0.5-0.8,0.8l-9.5,16.3c-0.9,1.6-0.9,3.5,0,5.1L48.2,57 c0.5,1,1.7,1.3,2.7,0.8c0.4-0.2,0.6-0.5,0.8-0.8l9.5-16.3c0.9-1.6,0.9-3.5,0-5.1L51.8,19.2z M27.8,19.2c-0.5-1-1.8-1.3-2.7-0.8 c-0.3,0.2-0.6,0.5-0.8,0.8l-9.5,16.3c-0.9,1.6-0.9,3.5,0,5.1L24.3,57c0.5,1,1.7,1.3,2.7,0.8c0.4-0.2,0.6-0.5,0.8-0.8l9.5-16.3 c0.9-1.6,0.9-3.5,0-5.1C34.3,30.2,30.2,23.2,27.8,19.2z M85.2,35.5l-9.5-16.3c-0.5-1-1.7-1.3-2.7-0.8c-0.3,0.2-0.6,0.5-0.8,0.8 l-9.5,16.3c-0.9,1.6-0.9,3.5,0,5.1L72.1,57c0.5,1,1.7,1.3,2.7,0.8c0.4-0.2,0.6-0.5,0.8-0.8l9.5-16.3C86.1,39.1,86.1,37.1,85.2,35.5 z"/>
</svg>
