<svg id="Capa_1" data-name="Capa 1" xmlns="http://www.w3.org/2000/svg" viewBox="0 0 129.48 98.49"><defs><style>.cls-1{fill:#be1622;}</style></defs><title>metro_icon</title><path class="cls-1" d="M340.11,369.12s-10.67,18.3-16.18,27.76c5.54,9.52,16.18,27.82,16.18,27.81s10.64-18.29,16.18-27.81C350.78,387.42,340.11,369.12,340.11,369.12Z" transform="translate(-242.97 -347.66)"/><path class="cls-1" d="M307.71,369.12s-10.67,18.3-16.18,27.76c5.54,9.52,16.18,27.82,16.18,27.81s10.64-18.29,16.18-27.81C318.38,387.42,307.71,369.12,307.71,369.12Z" transform="translate(-242.97 -347.66)"/><path class="cls-1" d="M275.31,369.12s-10.67,18.3-16.18,27.76c5.54,9.52,16.18,27.82,16.18,27.81s10.64-18.29,16.18-27.81C286,387.42,275.31,369.12,275.31,369.12Z" transform="translate(-242.97 -347.66)"/><path d="M307.71,446.15c-35.7,0-64.74-22.09-64.74-49.25s29-49.25,64.74-49.25,64.74,22.09,64.74,49.25S343.41,446.15,307.71,446.15Zm0-91.49c-31.84,0-57.74,19-57.74,42.25s25.9,42.25,57.74,42.25,57.74-19,57.74-42.25S339.55,354.66,307.71,354.66Z" transform="translate(-242.97 -347.66)"/></svg>