<svg xmlns="http://www.w3.org/2000/svg" viewBox="0 0 100 100" enable-background="new 0 0 100 100"><path d="M97.2 86.5l-29.4-27.4-3.8-3.5-8.4 8.4c.1.1.2.3.4.4l16 17.2 14.8 15.9c.9 1 2.1 1.7 3.4 2.1 4 1.2 8.3-1.1 9.5-5.1.9-2.9-.1-6.1-2.5-8zm-66.7-76.3c-3.8.1-7.4 1.2-10.5 3.3-5.9 3.8-9.5 10.3-9.6 17.3v.1c0 1.1.8 2 1.9 2.1h.1c1.1 0 1.9-.9 1.9-1.9.1-.3.1-.7.1-1 .6-8.9 7.9-15.8 16.7-15.9h.4c1-.1 1.8-1.1 1.6-2.1-.1-1.3-1-1.9-2.6-1.9zm27.5 39.6l-.3-.2c-.3-.4-.3-1.1.2-1.4 4.4-6.8 6-15.2 4.3-23.1-3.1-15.2-16.7-25.8-32-25.1-8.1.2-15.7 3.6-21.2 9.4-7.6 8-10.4 17.5-8.3 28.4 0 .2.1.4.1.7 3.9 16.8 20.7 27.4 37.6 23.5 3.9-.9 7.5-2.5 10.8-4.7l3.6 3.6 8.3-8.3c-1.1-1-2.1-2-3.1-2.8zm-2.3-18.2c-.1 13.4-11 24.2-24.4 24.2-13.4 0-24.3-10.9-24.3-24.3 0-13.5 10.9-24.4 24.4-24.4s24.3 10.9 24.3 24.3v.2z"/></svg>