<?xml version="1.0" encoding="utf-8"?>
<!-- Generator: Adobe Illustrator 19.2.1, SVG Export Plug-In . SVG Version: 6.00 Build 0)  -->
<svg version="1.1" id="Capa_1" xmlns="http://www.w3.org/2000/svg" xmlns:xlink="http://www.w3.org/1999/xlink" x="0px" y="0px"
	 viewBox="0 0 100 104.6" style="enable-background:new 0 0 100 104.6;" xml:space="preserve">
<style type="text/css">
	.st0{fill:#FFCD00;}
</style>
<path class="st0" d="M99.9,41.6c0.6,3.9-1.7,6.3-3.8,8.7c-3.9,4.4-8,8.5-12,12.8c-0.9,1-1.8,2.1-2.6,3.2c-1.7,2.2-1.2,4.7-0.9,7.1
	c0.4,3.1,0.9,6.2,1.4,9.3c0.4,2.7,1,5.4,1.2,8.2c0.3,3.5,0.8,7.1-0.8,10.5c-1.2,2.6-4.1,3.9-6.9,3.1c-5.7-1.6-10.6-5-15.7-7.9
	C57,94.8,54.1,93.3,51,92c-1.2-0.3-2.4-0.1-3.5,0.5c-4.2,2.2-8.3,4.4-12.3,6.8c-3.2,1.9-6.4,3.8-10,4.6s-5.9,0.5-7.4-2.4
	c-0.8-1.6-1.2-3.3-1.2-5c0.1-2.9,0.3-5.8,0.8-8.6c0.5-3.6,1.1-7.1,1.7-10.6c0.4-2.6,0.7-5.2,1-7.7c0.1-1.3-0.3-2.5-1.1-3.5
	c-2.4-2.8-4.8-5.5-7.3-8.3C8.8,54.4,5.9,51.3,3,48c-1.4-1.7-2.4-3.8-2.9-5.9c-0.5-2.4,0.6-4.9,2.8-6.2c2-1.1,4.1-1.9,6.2-2.4
	c5.8-1.1,11.7-1.9,17.6-2.9c1.4-0.2,2.7-0.6,4-1.1c0.9-0.5,1.7-1.2,2.2-2.1c2.2-4.3,4.2-8.6,6.2-13c2-4.1,3.7-8.4,6.7-11.8
	c1-1.3,2.4-2.2,4-2.5c1.1-0.1,2.2,0.2,3.2,0.8c3,1.8,4.7,5,6.2,8.2c2.5,5.3,4.9,10.7,7.3,16.1c0.4,0.8,0.8,1.5,1.2,2.3
	c1.1,2.1,3.1,2.7,5,3.1c3.9,0.8,7.9,1.2,11.8,1.9c3.8,0.7,7.6,1.1,11.2,2.8c1,0.5,1.9,1.1,2.8,1.7C100.1,38.1,100.1,39.8,99.9,41.6
	L99.9,41.6z"/>
</svg>
