<svg xmlns="http://www.w3.org/2000/svg" viewBox="0 0 100 104.58"><path class="cls-1" d="M99.91 41.56c.59 3.88-1.7 6.32-3.77 8.66-3.89 4.4-8 8.54-12 12.82-.94 1-1.77 2.13-2.63 3.22-1.71 2.16-1.18 4.71-.89 7.14.37 3.1.94 6.17 1.42 9.26.43 2.72 1 5.43 1.24 8.17.32 3.51.77 7.1-.75 10.47a5.7 5.7 0 0 1-6.88 3.05c-5.72-1.57-10.6-5-15.74-7.92a89.22 89.22 0 0 0-8.91-4.48 4.63 4.63 0 0 0-3.48.48c-4.17 2.15-8.28 4.43-12.35 6.8-3.21 1.86-6.43 3.76-10 4.62s-5.93.53-7.39-2.43a11.61 11.61 0 0 1-1.18-5 67.66 67.66 0 0 1 .79-8.63c.48-3.55 1.14-7.07 1.66-10.62.38-2.57.67-5.16 1-7.74a4.51 4.51 0 0 0-1.12-3.5c-2.39-2.79-4.82-5.53-7.26-8.27-2.86-3.23-5.82-6.39-8.67-9.66a14.82 14.82 0 0 1-2.86-5.92 5.92 5.92 0 0 1 2.75-6.21 22.59 22.59 0 0 1 6.25-2.43c5.84-1.13 11.73-1.93 17.59-2.92a14.84 14.84 0 0 0 3.95-1.11 5.07 5.07 0 0 0 2.2-2.13c2.16-4.28 4.19-8.63 6.25-13 2-4.12 3.71-8.37 6.7-11.8a6.66 6.66 0 0 1 4-2.48 5.28 5.28 0 0 1 3.17.8c3 1.82 4.69 5 6.2 8.22 2.51 5.31 4.86 10.72 7.29 16.08.36.79.83 1.52 1.23 2.3 1.09 2.13 3.05 2.72 5 3.1 3.92.75 7.88 1.21 11.8 1.92 3.77.69 7.62 1.08 11.18 2.76a17.17 17.17 0 0 1 2.8 1.74c1.56 1.14 1.63 2.89 1.41 4.64z"/></svg>