<svg xmlns="http://www.w3.org/2000/svg" viewBox="0 0 100 100" enable-background="new 0 0 100 100"><path d="M73.4 58.5c-1.2-.6-7.1-3.5-8.2-3.9-1.1-.4-1.9-.6-2.7.6-.8 1.2-3.1 3.9-3.8 4.7-.7.8-1.4.9-2.6.3-1.2-.6-5.1-1.9-9.7-5.9-3.6-3.2-6-7.1-6.7-8.3s-.1-1.8.5-2.4c.5-.5 1.2-1.4 1.8-2.1s.8-1.2 1.2-2c.4-.8.2-1.5-.1-2.1-.3-.6-2.7-6.5-3.7-8.9-1-2.4-2-2-2.7-2s-1.5-.1-2.3-.1c-.8 0-2.1.3-3.2 1.5s-4.2 4.1-4.2 10 4.3 11.6 4.9 12.3c.6.8 8.3 13.2 20.6 18 12.2 4.8 12.2 3.2 14.4 3 2.2-.2 7.1-2.9 8.1-5.7 1-2.7 1-5.1.7-5.6s-1.1-.8-2.3-1.4zm-22.5-58.5c-27.1 0-49.1 21.8-49 48.7 0 9.3 2.5 17.9 7 25.2l-8.9 26.1 27.2-8.7c7 3.9 15.1 6.1 23.7 6.1 27.1 0 49.1-21.8 49.1-48.7 0-26.9-22-48.7-49.1-48.7zm0 89.8c-8.4 0-16.2-2.5-22.7-6.8l-15.9 5 5.2-15.2c-5-6.7-7.9-15-7.9-24 0-22.6 18.5-41 41.3-41 22.8 0 41.3 18.4 41.3 41s-18.5 41-41.3 41z"/></svg>